<svg width="208" height="175" viewBox="0 0 208 175" fill="none" xmlns="http://www.w3.org/2000/svg">
<g filter="url(#filter0_f_48_777)">
<path d="M22.2348 61.6514L27.4087 130.851L44.5468 132.468L30.0098 154.895L57.8045 132.468L176.155 139.905L179.065 113.713" stroke="url(#paint0_linear_48_777)" stroke-width="20" stroke-linejoin="round"/>
</g>
<g filter="url(#filter1_f_48_777)">
<path d="M180.499 98.8191L179.711 107.222" stroke="url(#paint1_linear_48_777)" stroke-width="20" stroke-linecap="round" stroke-linejoin="round"/>
</g>
<g filter="url(#filter2_f_48_777)">
<path d="M181.976 90.6595L187.473 20.5842L20.2948 27.8693V41.7456" stroke="url(#paint2_linear_48_777)" stroke-width="20" stroke-linejoin="round"/>
</g>
<path d="M181.976 85.9034L186.998 26.2293C187.25 23.232 184.818 20.6921 181.813 20.8141L25.0919 27.18C22.4116 27.2888 20.2948 29.4934 20.2948 32.1759V40.3093" stroke="white" stroke-width="5" stroke-linecap="round" stroke-linejoin="round"/>
<path d="M22.2348 61.6514L27.4087 130.851L39.4398 132.468L30.113 158.136L57.8045 132.468L176.155 139.905L179.065 113.713" stroke="white" stroke-width="5" stroke-linecap="round" stroke-linejoin="round"/>
<path d="M180.499 98.8191L179.711 107.222" stroke="white" stroke-width="5" stroke-linecap="round" stroke-linejoin="round"/>
<defs>
<filter id="filter0_f_48_777" x="2.2627" y="50.9058" width="196.742" height="123.99" filterUnits="userSpaceOnUse" color-interpolation-filters="sRGB">
<feFlood flood-opacity="0" result="BackgroundImageFix"/>
<feBlend mode="normal" in="SourceGraphic" in2="BackgroundImageFix" result="shape"/>
<feGaussianBlur stdDeviation="5" result="effect1_foregroundBlur_48_777"/>
</filter>
<filter id="filter1_f_48_777" x="159.71" y="78.8184" width="40.7891" height="48.4038" filterUnits="userSpaceOnUse" color-interpolation-filters="sRGB">
<feFlood flood-opacity="0" result="BackgroundImageFix"/>
<feBlend mode="normal" in="SourceGraphic" in2="BackgroundImageFix" result="shape"/>
<feGaussianBlur stdDeviation="5" result="effect1_foregroundBlur_48_777"/>
</filter>
<filter id="filter2_f_48_777" x="0.294922" y="0.584229" width="207.178" height="100.857" filterUnits="userSpaceOnUse" color-interpolation-filters="sRGB">
<feFlood flood-opacity="0" result="BackgroundImageFix"/>
<feBlend mode="normal" in="SourceGraphic" in2="BackgroundImageFix" result="shape"/>
<feGaussianBlur stdDeviation="5" result="effect1_foregroundBlur_48_777"/>
</filter>
<linearGradient id="paint0_linear_48_777" x1="179.065" y1="114.078" x2="16.5418" y2="74.623" gradientUnits="userSpaceOnUse">
<stop stop-color="#5E76FC"/>
<stop offset="0.182292" stop-color="#946DFB"/>
<stop offset="0.442708" stop-color="#AC4CFC"/>
<stop offset="0.765947" stop-color="#CE1FFD"/>
<stop offset="0.979167" stop-color="#563CFE"/>
</linearGradient>
<linearGradient id="paint1_linear_48_777" x1="180.105" y1="98.8191" x2="180.105" y2="107.222" gradientUnits="userSpaceOnUse">
<stop stop-color="#629EFB"/>
<stop offset="1" stop-color="#423BFD"/>
</linearGradient>
<linearGradient id="paint2_linear_48_777" x1="20.2948" y1="29.7192" x2="189.602" y2="81.1125" gradientUnits="userSpaceOnUse">
<stop stop-color="#4F7CFD"/>
<stop offset="0.747863" stop-color="#08F6FF"/>
<stop offset="1" stop-color="#707DFC"/>
</linearGradient>
</defs>
</svg>
