<svg width="51" height="50" viewBox="0 0 51 50" fill="none" xmlns="http://www.w3.org/2000/svg">
<g filter="url(#filter0_f_22_341)">
<path fill-rule="evenodd" clip-rule="evenodd" d="M19.2111 30.9111C19.0068 30.7052 18.8926 30.4265 18.8938 30.1364C18.895 29.8463 19.0113 29.5686 19.2172 29.3643L28.2133 20.4394L21.573 20.4146C21.2826 20.4134 21.0045 20.2969 20.7999 20.0907C20.5953 19.8845 20.4811 19.6055 20.4822 19.3151C20.4834 19.0246 20.5999 18.7465 20.8061 18.542C21.0123 18.3374 21.2913 18.2232 21.5817 18.2243L30.8624 18.2612C31.0063 18.2616 31.1486 18.2903 31.2814 18.3458C31.4141 18.4013 31.5346 18.4825 31.6359 18.5846C31.7372 18.6868 31.8174 18.8079 31.8719 18.941C31.9263 19.0742 31.9539 19.2168 31.9532 19.3607L31.9163 28.6414C31.9151 28.9318 31.7987 29.2099 31.5925 29.4145C31.3863 29.619 31.1073 29.7333 30.8168 29.7321C30.5264 29.731 30.2483 29.6145 30.0437 29.4083C29.8392 29.2021 29.7249 28.9231 29.7261 28.6327L29.754 21.9923L20.7579 30.9172C20.5519 31.1215 20.2733 31.2357 19.9832 31.2345C19.6931 31.2334 19.4154 31.117 19.2111 30.9111Z" fill="#00FFF0"/>
</g>
<defs>
<filter id="filter0_f_22_341" x="-3.32568" y="-4" width="57.4971" height="57.4971" filterUnits="userSpaceOnUse" color-interpolation-filters="sRGB">
<feFlood flood-opacity="0" result="BackgroundImageFix"/>
<feBlend mode="normal" in="SourceGraphic" in2="BackgroundImageFix" result="shape"/>
<feGaussianBlur stdDeviation="2" result="effect1_foregroundBlur_22_341"/>
</filter>
</defs>
</svg>
